<svg xmlns="http://www.w3.org/2000/svg" xml:space="preserve" width="800" height="800" viewBox="0 0 59 59"><path d="M52.224 53h-.556a3.959 3.959 0 0 0 .556-2c0-1.489-.828-2.776-2.038-3.465L48.319 27h.405c1.93 0 3.5-1.57 3.5-3.5a3.493 3.493 0 0 0-1.494-2.859 2.969 2.969 0 0 0 .234-2.852L56.776 5h-6.119l-3 5h-2.214l1-5h-8.439l1 5H36.79l-3-5h-6.119l5.813 12.789c-.165.371-.26.78-.26 1.211 0 .606.184 1.168.494 1.641a3.493 3.493 0 0 0-1.494 2.859c0 1.93 1.57 3.5 3.5 3.5h.405l-1.867 20.535c-1.211.688-2.038 1.975-2.038 3.465 0 .732.212 1.409.556 2h-.556c-1.654 0-3 1.346-3 3s1.346 3 3 3h20c1.654 0 3-1.346 3-3s-1.346-3-3-3zm-16-35h12a1.001 1.001 0 0 1 0 2h-12a1.001 1.001 0 0 1 0-2zM32.657 7l2.555 4.257a1.54 1.54 0 0 0 1.313.743h3.048a1.53 1.53 0 0 0 1.503-1.834L40.443 7h3.561l-.633 3.165A1.53 1.53 0 0 0 44.874 12h3.048c.534 0 1.038-.285 1.314-.744L51.79 7h1.881l-4.091 9H34.868l-4.091-9h1.88zm3.067 18c-.827 0-1.5-.673-1.5-1.5s.673-1.5 1.5-1.5h13c.827 0 1.5.673 1.5 1.5s-.673 1.5-1.5 1.5h-13zm10.587 2 1.818 20H36.318l1.818-20h8.175zM34.224 51c0-1.103.897-2 2-2h12c1.103 0 2 .897 2 2s-.897 2-2 2h-12c-1.103 0-2-.897-2-2zm18 6h-20a1.001 1.001 0 0 1 0-2h20a1.001 1.001 0 0 1 0 2zM25.224 53h-.556a3.959 3.959 0 0 0 .556-2c0-1.489-.828-2.776-2.038-3.465L21.319 27h.405c1.93 0 3.5-1.57 3.5-3.5a3.505 3.505 0 0 0-2.771-3.421l1.345-6.05a2.482 2.482 0 0 0-.489-2.097A2.48 2.48 0 0 0 21.366 11h-2.143v-1h.628a2.375 2.375 0 0 0 2.372-2.373V5.373A2.374 2.374 0 0 0 19.852 3h-.628v-.627A2.375 2.375 0 0 0 16.852 0h-3.256a2.375 2.375 0 0 0-2.372 2.373V3h-.628a2.375 2.375 0 0 0-2.372 2.373v2.255A2.375 2.375 0 0 0 10.596 10h.628v1H9.081c-.759 0-1.467.339-1.942.932a2.48 2.48 0 0 0-.489 2.098l1.345 6.05a3.505 3.505 0 0 0-2.771 3.421c0 1.93 1.57 3.5 3.5 3.5h.405L7.262 47.535c-1.211.689-2.038 1.976-2.038 3.465 0 .732.212 1.409.556 2h-.556c-1.654 0-3 1.346-3 3s1.346 3 3 3h20c1.654 0 3-1.346 3-3s-1.346-3-3-3zM10.228 37h9.992l.182 2H10.046l.182-2zm-.364 4h10.719l.546 6H9.318l.546-6zm.732-33a.373.373 0 0 1-.372-.373V5.373c0-.206.167-.373.372-.373h2.628V2.373c0-.206.167-.373.372-.373h3.256c.205 0 .372.167.372.373V5h2.628c.205 0 .372.167.372.373v2.255a.373.373 0 0 1-.372.372h-2.628v3h-4V8h-2.628zm-1.898 5.184A.484.484 0 0 1 9.081 13H21.367c.205 0 .327.115.383.184a.478.478 0 0 1 .096.412L20.422 20H10.025l-1.423-6.404a.484.484 0 0 1 .096-.412zM8.724 25c-.827 0-1.5-.673-1.5-1.5s.673-1.5 1.5-1.5h13c.827 0 1.5.673 1.5 1.5s-.673 1.5-1.5 1.5h-13zm10.587 2 .727 8H10.41l.727-8h8.174zM7.224 51c0-1.103.897-2 2-2h12c1.103 0 2 .897 2 2s-.897 2-2 2h-12c-1.103 0-2-.897-2-2zm18 6h-20a1.001 1.001 0 0 1 0-2h20a1.001 1.001 0 0 1 0 2z"/></svg>